<svg width="276" height="200" viewBox="0 0 276 200" fill="none" xmlns="http://www.w3.org/2000/svg">
<path d="M224.67 4L207.534 100.559C205.086 114.431 201.006 138.638 199.374 152.51H198.286C196.382 138.638 192.302 114.975 189.854 100.015L172.99 6.71996H137.903L121.039 100.015C118.591 114.975 114.511 138.638 112.607 152.51H111.519C109.887 138.638 105.807 114.431 103.359 100.559L86.2233 4H51.6797L94.3832 194.398H130.015L145.791 121.231C150.142 101.919 153.678 74.9912 155.038 59.4874H156.126C157.214 74.9912 160.75 101.919 165.102 121.231L180.878 194.398H216.51L259.213 4H224.67Z" fill="white"/>
</svg>
