<svg width="896" height="255" viewBox="0 0 896 255" fill="none" xmlns="http://www.w3.org/2000/svg">
<path fill-rule="evenodd" clip-rule="evenodd" d="M454.612 82.5H478.133V43.74C478.133 33.18 482.452 27.58 490.932 27.58C499.413 27.58 503.733 33.18 503.733 43.74V83.1C503.733 93.6319 499.435 99.2302 491 99.2599V121.34C513.679 121.312 527.253 107.076 527.253 83.1V43.74C527.253 19.74 513.652 5.5 490.932 5.5C468.212 5.5 454.612 19.74 454.612 43.74V82.5ZM0 7.41999V119.42H31.04C53.44 119.42 66.56 105.34 66.56 81.5V44.54C66.56 21.18 53.28 7.41999 30.72 7.41999H0ZM31.04 97.82H22.72V29.02H31.04C39.2 29.02 43.52 34.3 43.52 44.54V81.5C43.52 92.22 39.2 97.82 31.04 97.82ZM158.485 97.82H121.845V73.02H153.685V52.22H121.845V29.02H156.885V7.41999H122V28.5H99.125V119.42H158.485V97.82ZM207.089 119.42L180.529 7.41999H204.049L214.129 60.38C215.729 68.54 217.649 82.3 218.769 91.58H219.409C220.529 82.3 222.449 68.54 224.049 60.38L234.129 7.41999H257.649L231.089 119.42H207.089ZM343.454 97.82H306.814V73.02H338.654V52.22H306.814V29.02H341.854V7.41999H284.094V119.42H343.454V97.82ZM397.658 97.82H430.938V119.42H374.938V7.41999H397.658V97.82ZM592.386 7.41999C615.586 7.41999 629.346 21.5 629.346 45.5C629.346 69.34 615.586 83.42 592.386 83.42H582.626V119.42H559.906V7.41999H592.386ZM592.066 61.82C601.186 61.82 605.986 56.22 605.986 45.5C605.986 34.62 601.186 29.02 592.066 29.02H582.626V61.82H592.066ZM680.658 7.41999H657.938V119.42H680.658V7.41999ZM765.398 7.41999H787.797V119.42H765.398L746.518 76.06L736.438 48.7L735.958 49.18C737.718 63.26 738.838 84.22 738.838 96.7V119.42H716.438V7.41999H738.838L760.117 56.06C761.478 59.58 762.798 63.1801 764.118 66.7801L764.118 66.7812L764.121 66.79L764.123 66.796L764.125 66.7988L764.125 66.8007L764.126 66.8017L764.126 66.8028C765.443 70.3952 766.76 73.9874 768.117 77.5L768.597 77.02C766.677 62.94 765.398 43.74 765.398 33.34V7.41999ZM820.487 85.18C820.487 108.7 833.607 121.34 855.847 121.34C877.767 121.34 890.247 108.7 890.888 85.18V57.02H855.047V77.18H868.487V85.18C868.487 95.26 864.487 99.42 856.167 99.42C848.167 99.42 844.167 95.26 844.167 85.18V41.66C844.167 31.58 848.328 27.42 856.008 27.42C863.848 27.42 867.048 31.58 867.528 41.66H890.247C889.448 18.14 877.607 5.5 856.008 5.5C833.607 5.5 820.487 18.14 820.487 41.66V85.18ZM45.36 185.92V171.34H0V185.92H14.796V246.94H30.564V185.92H45.36ZM109.882 171.34H94.4384V201.58H78.8864V171.34H63.4424V246.94H78.8864V216.16H94.4384V246.94H109.882V171.34ZM134.043 232.5H174.111V246.94H134.043V232.5ZM134.043 215.5H170.871V201.58H149.379V201.5H134.043V215.5ZM134.043 171.34V185.5H173.031V171.34H134.043ZM243.12 185.92H265.152V171.34H227.784V246.94H243.12V215.62H262.992V201.58H243.12V185.92ZM283.8 222.64C283.8 238.624 292.764 248.236 307.884 248.236C323.004 248.236 331.968 238.624 331.968 222.64V171.34H315.984V222.64C315.984 229.552 313.284 233.332 307.884 233.332C302.484 233.332 299.784 229.552 299.784 222.64V171.34H283.8V222.64ZM395.137 185.92V171.34H349.777V185.92H364.573V246.94H380.341V185.92H395.137ZM412.978 222.64C412.978 238.624 421.942 248.236 437.062 248.236C452.182 248.236 461.146 238.624 461.146 222.64V171.34H445.162V222.64C445.162 229.552 442.462 233.332 437.062 233.332C431.662 233.332 428.962 229.552 428.962 222.64V171.34H412.978V222.64ZM504.767 221.56L516.863 246.94H533.603L519.347 218.32C526.043 214.324 529.823 206.764 529.823 196.504C529.823 180.628 520.967 171.34 505.955 171.34H484.031V246.94H499.367V221.56H504.767ZM499.367 206.98V185.92H505.739C511.139 185.92 514.055 189.592 514.055 196.504C514.055 203.308 511.139 206.98 505.739 206.98H499.367ZM591.746 232.36H567.014V215.62H588.506V201.58H567.014V185.92H590.666V171.34H551.678V232.5H567V246.94H591.746V232.36Z" fill="white"/>
</svg>
