<svg width="44" height="44" viewBox="0 0 44 44" fill="none" xmlns="http://www.w3.org/2000/svg">
<path d="M22.0011 40.4333C22.2741 40.2953 22.5611 40.1633 22.8611 40.0333C23.4911 39.7633 24.1461 39.5283 24.9261 39.2783C25.0761 39.2303 26.2411 38.8683 26.4802 38.7863C30.3162 37.4592 33.2543 35.7752 35.2233 33.6732C37.7503 30.9762 39.1404 27.7152 39.3964 23.8762C38.7593 23.0182 38.4403 22.0801 38.4403 21.0631C38.4403 19.8331 38.9063 18.7201 39.8364 17.7241C40.7664 18.7201 41.2324 19.8341 41.2324 21.0631C41.2324 22.1261 40.8844 23.1022 40.1884 23.9912C39.9084 27.9802 38.4483 31.3902 35.8083 34.2062C33.7403 36.4142 30.6932 38.1612 26.7442 39.5273C26.4902 39.6153 25.3111 39.9803 25.1731 40.0253C24.4151 40.2683 23.7831 40.4953 23.1781 40.7553C23.0655 40.8032 22.9535 40.8526 22.8421 40.9033C23.8641 41.5363 24.6271 42.2703 25.0981 43.1483C25.1471 43.2406 25.157 43.3486 25.1256 43.4482C25.0942 43.5479 25.0241 43.6307 24.9311 43.6783C24.7371 43.7799 24.4974 43.7074 24.3921 43.5153C23.9371 42.6663 23.1261 41.9483 22.0011 41.3253C20.8761 41.9483 20.0651 42.6663 19.61 43.5153C19.5048 43.708 19.2643 43.7805 19.07 43.6783C18.9772 43.6306 18.9074 43.5476 18.8762 43.448C18.845 43.3484 18.855 43.2404 18.904 43.1483C19.375 42.2703 20.1381 41.5363 21.1601 40.9033C21.0501 40.8533 20.9381 40.8033 20.8241 40.7543C20.171 40.4794 19.5053 40.2358 18.829 40.0243C18.691 39.9803 17.512 39.6153 17.259 39.5273C13.3089 38.1612 10.2619 36.4142 8.19286 34.2072C5.55282 31.3902 4.0928 27.9802 3.81379 23.9912C3.11778 23.1012 2.76978 22.1261 2.76978 21.0631C2.76978 19.8331 3.23578 18.7201 4.1658 17.7241C5.09581 18.7201 5.56182 19.8341 5.56182 21.0631C5.56182 22.0801 5.24281 23.0182 4.6058 23.8762C4.86181 27.7162 6.25183 30.9762 8.77887 33.6732C10.7479 35.7752 13.6859 37.4592 17.522 38.7863C17.762 38.8693 18.926 39.2303 19.076 39.2783C19.856 39.5283 20.5101 39.7643 21.1421 40.0343C21.4421 40.1623 21.7281 40.2953 22.0011 40.4333Z" fill="#FF0044"/>
<path d="M3.6897 27.1534C2.48468 27.2624 1.54466 26.9844 0.869653 26.3194C0.195642 25.6554 -0.0863626 24.7294 0.0236392 23.5424C1.22866 23.4324 2.16867 23.7114 2.84368 24.3754C3.51869 25.0404 3.8007 25.9654 3.6897 27.1534Z" fill="#FF0044"/>
<path d="M5.59272 26.7912C5.15272 25.6812 5.16572 24.7142 5.62772 23.8922C6.09073 23.0702 6.91674 22.5482 8.10576 22.3262C8.54377 23.4362 8.53177 24.4032 8.06976 25.2252C7.60676 26.0472 6.78074 26.5692 5.59272 26.7912Z" fill="#FF0044"/>
<path d="M5.38279 31.5751C4.23977 31.9681 3.25976 31.9231 2.44174 31.4381C1.62373 30.9541 1.12272 30.1231 0.938721 28.9451C2.08074 28.5521 3.06175 28.5981 3.87877 29.0821C4.69778 29.5661 5.19879 30.3971 5.38179 31.5751H5.38279Z" fill="#FF0044"/>
<path d="M7.13964 30.7714C6.44063 29.7984 6.21563 28.8574 6.46263 27.9494C6.70963 27.0414 7.38265 26.3384 8.48066 25.8394C9.17967 26.8124 9.40568 27.7534 9.15867 28.6614C8.91167 29.5694 8.23866 30.2724 7.13864 30.7714H7.13964Z" fill="#FF0044"/>
<path d="M8.61382 35.5892C7.65081 36.3112 6.70379 36.5662 5.77378 36.3542C4.84376 36.1432 4.10675 35.5052 3.56274 34.4412C4.52576 33.7192 5.47277 33.4642 6.40279 33.6752C7.3328 33.8872 8.06882 34.5252 8.61282 35.5892H8.61382Z" fill="#FF0044"/>
<path d="M10.0328 34.2894C9.06278 33.5774 8.55277 32.7514 8.50277 31.8124C8.45277 30.8734 8.87277 30.0004 9.76179 29.1914C10.7318 29.9044 11.2418 30.7304 11.2918 31.6684C11.3408 32.6074 10.9218 33.4814 10.0328 34.2904V34.2894Z" fill="#FF0044"/>
<path d="M12.8148 38.4242C12.0908 39.3792 11.2528 39.8812 10.2997 39.9302C9.34672 39.9802 8.45971 39.5662 7.6377 38.6912C8.36171 37.7362 9.20072 37.2342 10.1537 37.1852C11.1068 37.1352 11.9938 37.5482 12.8138 38.4242H12.8148Z" fill="#FF0044"/>
<path d="M13.8148 36.7894C12.6838 36.3674 11.9627 35.7124 11.6517 34.8234C11.3417 33.9344 11.4997 32.9804 12.1277 31.9624C13.2588 32.3844 13.9808 33.0394 14.2908 33.9284C14.6008 34.8174 14.4428 35.7714 13.8148 36.7894Z" fill="#FF0044"/>
<path d="M17.0679 40.1965C16.5049 41.2515 15.7569 41.8765 14.8228 42.0725C13.8898 42.2675 12.9478 41.9965 11.9978 41.2585C12.5608 40.2035 13.3098 39.5785 14.2428 39.3835C15.1759 39.1875 16.1179 39.4585 17.0679 40.1965Z" fill="#FF0044"/>
<path d="M17.798 38.4285C16.6119 38.1855 15.7959 37.6495 15.3479 36.8195C14.8999 35.9894 14.9049 35.0234 15.3629 33.9194C16.5479 34.1624 17.365 34.6994 17.813 35.5294C18.261 36.3595 18.255 37.3255 17.797 38.4285H17.798Z" fill="#FF0044"/>
<path d="M40.3113 27.1531C40.2013 25.9661 40.4823 25.0401 41.1573 24.3751C41.8323 23.7111 42.7723 23.4331 43.9773 23.5421C44.0873 24.7291 43.8053 25.6551 43.1313 26.3191C42.4563 26.9841 41.5163 27.2621 40.3113 27.1531Z" fill="#FF0044"/>
<path d="M38.4082 26.7912C37.2202 26.5692 36.3942 26.0472 35.9312 25.2252C35.4692 24.4032 35.4572 23.4362 35.8952 22.3252C37.0852 22.5482 37.9102 23.0702 38.3732 23.8922C38.8352 24.7142 38.8472 25.6812 38.4082 26.7922V26.7912Z" fill="#FF0044"/>
<path d="M38.6182 31.5751C38.8032 30.3971 39.3032 29.5651 40.1212 29.0821C40.9392 28.5981 41.9202 28.5521 43.0612 28.9451C42.8782 30.1231 42.3772 30.9551 41.5592 31.4381C40.7412 31.9231 39.7612 31.9681 38.6192 31.5751H38.6182Z" fill="#FF0044"/>
<path d="M36.8612 30.7714C35.7622 30.2724 35.0892 29.5694 34.8422 28.6614C34.5952 27.7534 34.8222 26.8124 35.5202 25.8394C36.6192 26.3384 37.2912 27.0414 37.5382 27.9494C37.7852 28.8574 37.5602 29.7984 36.8612 30.7714Z" fill="#FF0044"/>
<path d="M35.3872 35.5892C35.9322 34.5252 36.6692 33.8872 37.5992 33.6752C38.5293 33.4642 39.4753 33.7192 40.4393 34.4412C39.8943 35.5052 39.1563 36.1432 38.2273 36.3542C37.2972 36.5662 36.3502 36.3112 35.3872 35.5892Z" fill="#FF0044"/>
<path d="M33.9681 34.2894C33.0791 33.4814 32.6601 32.6074 32.7101 31.6694C32.7601 30.7294 33.2701 29.9044 34.2401 29.1914C35.1281 30.0004 35.5471 30.8734 35.4971 31.8124C35.4471 32.7514 34.9371 33.5774 33.9681 34.2904V34.2894Z" fill="#FF0044"/>
<path d="M31.187 38.4241C32.008 37.5481 32.895 37.1351 33.8481 37.1841C34.8011 37.2341 35.6401 37.7361 36.3641 38.6911C35.5431 39.5661 34.6551 39.9791 33.7021 39.9311C32.749 39.8811 31.911 39.3791 31.187 38.4241Z" fill="#FF0044"/>
<path d="M30.187 36.7894C29.559 35.7714 29.4 34.8174 29.711 33.9284C30.021 33.0394 30.743 32.3844 31.8741 31.9624C32.5021 32.9804 32.6611 33.9344 32.3501 34.8234C32.0401 35.7124 31.318 36.3674 30.187 36.7894Z" fill="#FF0044"/>
<path d="M26.9341 40.1965C27.8841 39.4585 28.8261 39.1875 29.7591 39.3835C30.6921 39.5785 31.4412 40.2035 32.0042 41.2585C31.0541 41.9965 30.1121 42.2685 29.1791 42.0725C28.2451 41.8775 27.4971 41.2525 26.9341 40.1965Z" fill="#FF0044"/>
<path d="M26.2041 38.4284C25.7471 37.3254 25.7411 36.3584 26.1891 35.5284C26.6371 34.6984 27.4541 34.1624 28.6391 33.9204C29.0971 35.0234 29.1021 35.9904 28.6541 36.8204C28.2061 37.6504 27.3901 38.1854 26.2041 38.4284Z" fill="#FF0044"/>
<path d="M22.2754 0C27.5911 0 31.9004 4.38261 31.9004 9.78883C31.9004 16.8866 24.7916 25.85 22.2754 25.85C19.7592 25.85 12.6504 16.8866 12.6504 9.78883C12.6504 4.38261 16.9597 0 22.2754 0ZM22.2754 3.57871C18.903 3.57871 16.1692 6.35908 16.1692 9.78883C16.1692 13.2186 18.903 15.999 22.2754 15.999C25.6477 15.999 28.3816 13.2186 28.3816 9.78883C28.3816 6.35908 25.6477 3.57871 22.2754 3.57871ZM22.2754 6.7364C23.933 6.7364 25.2767 8.10302 25.2767 9.78883C25.2767 11.4746 23.933 12.8413 22.2754 12.8413C20.6178 12.8413 19.274 11.4746 19.274 9.78883C19.274 8.10302 20.6178 6.7364 22.2754 6.7364Z" fill="#FF0044"/>
</svg>
