<svg width="240" height="300" viewBox="0 0 240 300" fill="none" xmlns="http://www.w3.org/2000/svg">
<path d="M55 7H199L179 56H35L55 7Z" fill="white"/>
<path d="M45.0165 76V171.82H99.9565C102.826 154.19 110.617 148.45 123.326 148.45C135.216 148.45 142.597 155.42 142.597 180.84V212.41C142.597 237.42 134.396 244.8 120.456 244.8C106.926 244.8 99.9565 237.83 98.7265 216.1H42.1465C43.3765 267.35 73.3065 298.92 120.456 298.92C167.606 298.92 199.176 267.35 199.176 211.59V181.66C199.176 126.72 170.477 95.56 130.706 95.56C120.047 95.56 109.386 98.84 100.776 103.35V76H45.0165Z" fill="#FF0044"/>
</svg>
