<svg width="230" height="300" viewBox="0 0 230 300" fill="none" xmlns="http://www.w3.org/2000/svg">
<path d="M197.966 214.56H144.705C144.747 213.537 144.769 212.491 144.769 211.42V90.2172C144.769 66.8774 134.942 54.5932 115.696 54.5932C96.4513 54.5932 86.2145 66.8774 86.2145 90.2172V211.42C86.2145 234.291 96.398 246.163 115.546 246.225V297.819C63.6346 297.757 32.9834 265.827 32.9834 211.42V90.2172C32.9834 35.3481 63.6937 3 115.696 3C167.29 3 198 35.3481 198 90.2172V211.42C198 212.475 197.989 213.522 197.966 214.56Z" fill="#FF0044"/>
<path d="M119.431 297.761C166.426 296.301 195.178 267.112 197.803 218.08H144.393C142.578 235.164 134.182 244.717 119.431 246.061V297.761Z" fill="white"/>
</svg>
