<svg width="232" height="200" viewBox="0 0 232 200" fill="none" xmlns="http://www.w3.org/2000/svg">
<path d="M150.606 152.51C148.702 138.638 144.622 114.975 142.174 100.015L125.311 6.71996H90.223L73.3592 100.015C70.9112 114.975 66.8312 138.638 64.9273 152.51H63.8393C62.2073 138.638 58.1273 114.431 55.6794 100.559L38.5436 4H4L46.7035 194.398H82.3351L98.1109 121.231C102.463 101.919 105.999 74.9912 107.359 59.4874H108.447C109.535 74.9912 113.071 101.919 117.423 121.231L130.632 194.398H158.525L150.606 152.51Z" fill="#FF0044"/>
<path d="M176.99 4L159.854 100.559C158.858 106.203 157.592 113.557 156.331 121.231H185.24L211.533 4H176.99Z" fill="#FF0044"/>
</svg>
