<svg width="128" height="260" viewBox="0 0 128 260" fill="none" xmlns="http://www.w3.org/2000/svg">
<path d="M64.0425 213.877C95.1878 213.877 112.952 193.805 112.952 168.428C112.952 117.672 47.2009 116.75 47.2009 88.6034C47.2009 79.3752 53.43 73.3769 64.0425 73.3769C74.8856 73.3769 81.3454 79.6059 81.5761 92.5254H110.645C110.414 63.6872 92.8807 45.9229 64.0425 45.9229C35.4349 45.9229 18.3627 63.9179 18.3627 87.9113C18.3627 136.59 83.4218 138.897 83.4218 168.197C83.4218 178.579 77.1927 186.192 64.2732 186.192C52.0458 186.192 44.4325 179.502 44.2018 164.967H15.1328C15.3635 196.112 34.2814 213.877 64.0425 213.877Z" fill="white"/>
<path d="M91 1H34V25H91V1Z" fill="#FF0044"/>
</svg>
