<svg width="118" height="260" viewBox="0 0 118 260" fill="none" xmlns="http://www.w3.org/2000/svg">
<path d="M58.7641 213.877C89.9094 213.877 107.674 193.805 107.674 168.428C107.674 117.672 41.9226 116.75 41.9226 88.6034C41.9226 79.3752 48.1516 73.3769 58.7641 73.3769C69.6073 73.3769 76.067 79.6059 76.2977 92.5254H105.367C105.136 63.6872 87.6024 45.9229 58.7641 45.9229C30.1566 45.9229 13.0844 63.9179 13.0844 87.9113C13.0844 136.59 78.1434 138.897 78.1434 168.197C78.1434 178.579 71.9144 186.192 58.9948 186.192C46.7674 186.192 39.1541 179.502 38.9234 164.967H9.85449C10.0852 196.112 29.0031 213.877 58.7641 213.877Z" fill="white"/>
</svg>
