<svg width="146" height="190" viewBox="0 0 146 190" fill="none" xmlns="http://www.w3.org/2000/svg">
<path d="M24.0865 52.1775C24.4236 80.1091 45.6047 93.1556 64.1306 104.567C78.619 113.491 91.4834 121.415 91.4834 134.676C91.4834 145.431 85.0302 153.319 71.6456 153.319C58.978 153.319 51.0907 146.387 50.8517 131.33H20.7363C20.9753 163.596 40.5742 182 71.4066 182C103.673 182 122.077 161.206 122.077 134.915C122.077 104.776 99.6984 91.598 80.5948 80.3484C66.3687 71.971 53.9588 64.6631 53.9588 52.2171C53.9588 52.2039 53.9588 52.1907 53.9589 52.1775H24.0865Z" fill="#FF0044"/>
<path d="M74.1269 36.5779C83.7137 37.5695 89.3524 44.0143 89.5714 56.2803H119.687C119.455 27.3218 102.382 9.14175 74.1269 8.052V36.5779Z" fill="#FF0044"/>
</svg>
