<svg width="137" height="190" viewBox="0 0 137 190" fill="none" xmlns="http://www.w3.org/2000/svg">
<path d="M119.406 134.915C119.406 161.206 101.003 182 68.7361 182C37.9037 182 18.3049 163.596 18.0659 131.33H48.1813C48.4203 146.387 56.3076 153.319 68.9752 153.319C82.3598 153.319 88.8131 145.431 88.8131 134.676C88.8131 121.415 75.9487 113.491 61.4602 104.567C42.7853 93.0637 21.412 79.8988 21.412 51.5C21.412 26.6428 39.0988 8 68.7361 8C98.6125 8 116.777 26.4038 117.016 56.2802H86.901C86.662 42.8956 79.9697 36.4423 68.7361 36.4423C57.7417 36.4423 51.2884 42.6566 51.2884 52.217C51.2884 64.663 63.6983 71.9709 77.9244 80.3483C97.0279 91.5979 119.406 104.776 119.406 134.915Z" fill="white"/>
</svg>
